<?xml version="1.0" encoding="UTF-8" standalone="no"?>
<svg
   width="190"
   height="118"
   viewBox="0 0 50.270832 31.220834"
   version="1.1"
   id="svg8"
   inkscape:version="1.1.1 (3bf5ae0d25, 2021-09-20)"
   sodipodi:docname="instagrume.svg"
   inkscape:export-filename="E:\Users\Bastien\Downloads\image.png"
   inkscape:export-xdpi="96"
   inkscape:export-ydpi="96"
   xmlns:inkscape="http://www.inkscape.org/namespaces/inkscape"
   xmlns:sodipodi="http://sodipodi.sourceforge.net/DTD/sodipodi-0.dtd"
   xmlns="http://www.w3.org/2000/svg"
   xmlns:svg="http://www.w3.org/2000/svg"
   xmlns:rdf="http://www.w3.org/1999/02/22-rdf-syntax-ns#"
   xmlns:cc="http://creativecommons.org/ns#"
   xmlns:dc="http://purl.org/dc/elements/1.1/">
  <defs
     id="defs2">
    <filter
       style="color-interpolation-filters:sRGB;"
       inkscape:label="Drop Shadow"
       id="filter1208">
      <feFlood
         flood-opacity="0.635294"
         flood-color="rgb(0,0,0)"
         result="flood"
         id="feFlood1198" />
      <feComposite
         in="flood"
         in2="SourceGraphic"
         operator="in"
         result="composite1"
         id="feComposite1200" />
      <feGaussianBlur
         in="composite1"
         stdDeviation="0.1"
         result="blur"
         id="feGaussianBlur1202" />
      <feOffset
         dx="0.3"
         dy="0.3"
         result="offset"
         id="feOffset1204" />
      <feComposite
         in="SourceGraphic"
         in2="offset"
         operator="over"
         result="composite2"
         id="feComposite1206" />
    </filter>
  </defs>
  <sodipodi:namedview
     id="base"
     pagecolor="#ffffff"
     bordercolor="#666666"
     borderopacity="1.0"
     inkscape:pageopacity="0.0"
     inkscape:pageshadow="2"
     inkscape:zoom="5.6568542"
     inkscape:cx="66.026096"
     inkscape:cy="86.178639"
     inkscape:document-units="px"
     inkscape:current-layer="layer2"
     showgrid="false"
     units="px"
     inkscape:window-width="2560"
     inkscape:window-height="1369"
     inkscape:window-x="-8"
     inkscape:window-y="-8"
     inkscape:window-maximized="1"
     fit-margin-top="0"
     fit-margin-left="0"
     fit-margin-right="0"
     fit-margin-bottom="0"
     objecttolerance="1"
     gridtolerance="1"
     guidetolerance="1"
     inkscape:document-rotation="0"
     showguides="true"
     inkscape:pagecheckerboard="0" />
  <metadata
     id="metadata5">
    <rdf:RDF>
      <cc:Work
         rdf:about="">
        <dc:format>image/svg+xml</dc:format>
        <dc:type
           rdf:resource="http://purl.org/dc/dcmitype/StillImage" />
      </cc:Work>
    </rdf:RDF>
  </metadata>
  <g
     inkscape:groupmode="layer"
     id="layer2"
     inkscape:label="background"
     style="display:inline">
    <rect
       style="fill:#c700ff;fill-opacity:1;stroke:none;stroke-width:0.26204899"
       id="rect2402"
       width="50.270832"
       height="31.220833"
       x="-50.270832"
       y="2.1396227e-007"
       rx="0"
       ry="0"
       transform="scale(-1,1)" />
    <path
       id="rect57002"
       style="fill:#d335ff;stroke-width:0.262049;fill-opacity:1"
       transform="scale(-1,1)"
       d="M -50.270832,2.1396227e-7 0,31.220833 h -50.270832 z"
       sodipodi:nodetypes="cccc" />
    <circle
       style="fill:#f7bd38;fill-opacity:1;stroke:#ffffff;stroke-width:1.37923;stroke-linecap:round;stroke-linejoin:round;stroke-miterlimit:4;stroke-dasharray:none;stroke-dashoffset:21;stroke-opacity:1;paint-order:stroke markers fill"
       id="path978"
       cx="25.289463"
       cy="17.095512"
       r="6.9927845" />
    <g
       id="g56883"
       style="stroke:#ffffff;stroke-opacity:1"
       transform="matrix(1.3790531,0,0,1.3790531,-9.3736105,-4.432082)">
      <g
         id="g47028"
         transform="matrix(0.86240005,0,0,0.86240005,2.679787,2.545666)"
         style="stroke:#ffffff;stroke-opacity:1">
        <path
           id="rect10991"
           style="fill:#779c4c;fill-opacity:1;stroke:#ffffff;stroke-width:0.799021;stroke-linecap:round;stroke-linejoin:round;stroke-dashoffset:21;stroke-opacity:1;paint-order:stroke markers fill"
           d="m 17.999012,7.1505282 c 1.027771,-0.2144936 2.358034,-0.7283198 4.747672,2.9963258 0,0 -1.013429,0.08137 -1.812064,-0.1854868 -0.564872,-0.188749 -1.934606,-0.740755 -2.12232,-1.312676 -0.170743,-0.52022 -0.268721,-0.903179 -0.813288,-1.498163 z"
           sodipodi:nodetypes="ccssc" />
        <path
           id="path14876"
           style="fill:#779c4c;fill-opacity:1;stroke:#ffffff;stroke-width:0.799021;stroke-linecap:round;stroke-linejoin:round;stroke-dashoffset:21;stroke-opacity:1;paint-order:stroke markers fill"
           d="m 17.095804,10.460289 c 0.747592,-0.7371758 1.587226,-1.8898388 5.613861,-0.0542 0,0 -0.807669,0.617521 -1.623501,0.825973 -0.577034,0.147439 -2.027365,0.425685 -2.49503,0.04671 -0.425387,-0.344712 -0.715242,-0.61349 -1.49533,-0.818484 z"
           sodipodi:nodetypes="ccssc" />
        <path
           id="rect10507"
           style="fill:#b75812;stroke:#ffffff;stroke-width:0.799021;stroke-linecap:round;stroke-linejoin:round;stroke-dashoffset:21;stroke-opacity:1;paint-order:stroke markers fill"
           d="m 24.423983,7.3215302 0.82976,0.754956 c -0.658013,0.691998 -2.456769,2.0641728 -2.663538,5.2867178 l -0.423745,0.322852 c -0.554311,-3.666944 2.370541,-6.3722728 2.257523,-6.3645258 z"
           sodipodi:nodetypes="ccccc" />
      </g>
    </g>
    <circle
       style="fill:#ffffff;fill-opacity:1;stroke:none;stroke-width:1.45289;stroke-linecap:round;stroke-linejoin:round;stroke-miterlimit:4;stroke-dasharray:none;stroke-dashoffset:21;stroke-opacity:1;paint-order:markers fill stroke"
       id="circle33788"
       cx="31.575764"
       cy="10.0113"
       r="3.7034366" />
    <g
       id="g44003"
       style="fill:#ffd900;fill-opacity:1"
       transform="matrix(1.0228995,0,0,1.0228995,30.839445,20.743729)">
      <g
         id="g35319"
         transform="translate(7.6181196,-15.866238)"
         style="fill:#ffd900;fill-opacity:1">
        <path
           id="rect33912"
           style="fill:#ffd900;fill-opacity:1;stroke-width:1.34938;stroke-linecap:round;stroke-linejoin:round;stroke-dashoffset:21;paint-order:markers fill stroke"
           d="m -8.975163,3.389974 c -0.3933731,-0.4148882 1.6639502,-1.4922954 1.765267,-0.7813478 0.1208378,0.8479282 0.1944086,1.9128786 0.1777669,2.3357747 -0.00325,0.082507 -0.1355429,0.09926 -0.1809782,0.063035 C -7.7656006,4.5669476 -8.9364363,3.4308188 -8.975163,3.389974 Z"
           sodipodi:nodetypes="sssss" />
        <path
           id="path35309"
           style="fill:#ffd900;fill-opacity:1;stroke-width:1.34938;stroke-linecap:round;stroke-linejoin:round;stroke-dashoffset:21;paint-order:markers fill stroke"
           d="m -7.0024541,2.5303719 c 0.00891,-0.5716599 2.2330049,0.096772 1.8082874,0.6758464 -0.5065492,0.6906461 -1.1986447,1.5033796 -1.5062598,1.794053 -0.060018,0.056709 -0.1663034,-0.023824 -0.1734521,-0.081492 -0.086934,-0.7012284 -0.1294532,-2.3321291 -0.1285755,-2.3884074 z"
           sodipodi:nodetypes="sssss" />
        <path
           id="path35311"
           style="fill:#ffd900;fill-opacity:1;stroke-width:1.34938;stroke-linecap:round;stroke-linejoin:round;stroke-dashoffset:21;paint-order:markers fill stroke"
           d="M -4.991857,3.2577222 C -4.5877502,2.8532817 -3.4551519,4.8807481 -4.1631031,5.0012356 -5.0074573,5.1449373 -6.0700313,5.2472524 -6.4932226,5.242042 -6.5757876,5.241032 -6.5961089,5.1092305 -6.5611236,5.0628325 -6.1357227,4.4986402 -5.0316403,3.2975379 -4.991857,3.2577222 Z"
           sodipodi:nodetypes="sssss" />
        <path
           id="path35313"
           style="fill:#ffd900;fill-opacity:1;stroke-width:1.34938;stroke-linecap:round;stroke-linejoin:round;stroke-dashoffset:21;paint-order:markers fill stroke"
           d="m -9.1214389,3.6556506 c -0.4731049,-0.3210081 -1.2031861,1.8836195 -0.4852132,1.868486 0.8563051,-0.01805 1.9191152,-0.1178817 2.3337365,-0.2027773 0.080894,-0.016557 0.076004,-0.1498259 0.0329,-0.1887967 -0.524133,-0.4738813 -1.8348469,-1.44531 -1.8814233,-1.476912 z"
           sodipodi:nodetypes="sssss" />
      </g>
      <g
         id="g35329"
         transform="rotate(180,-3.0892261,-2.5590448)"
         style="fill:#ffd900;fill-opacity:1">
        <path
           id="path35321"
           style="fill:#ffd900;fill-opacity:1;stroke-width:1.34938;stroke-linecap:round;stroke-linejoin:round;stroke-dashoffset:21;paint-order:markers fill stroke"
           d="m -8.975163,3.389974 c -0.3933731,-0.4148882 1.6639502,-1.4922954 1.765267,-0.7813478 0.1208378,0.8479282 0.1944086,1.9128786 0.1777669,2.3357747 -0.00325,0.082507 -0.1355429,0.09926 -0.1809782,0.063035 C -7.7656006,4.5669476 -8.9364363,3.4308188 -8.975163,3.389974 Z"
           sodipodi:nodetypes="sssss" />
        <path
           id="path35323"
           style="fill:#ffd900;fill-opacity:1;stroke-width:1.34938;stroke-linecap:round;stroke-linejoin:round;stroke-dashoffset:21;paint-order:markers fill stroke"
           d="m -7.0024541,2.5303719 c 0.00891,-0.5716599 2.2330049,0.096772 1.8082874,0.6758464 -0.5065492,0.6906461 -1.1986447,1.5033796 -1.5062598,1.794053 -0.060018,0.056709 -0.1663034,-0.023824 -0.1734521,-0.081492 -0.086934,-0.7012284 -0.1294532,-2.3321291 -0.1285755,-2.3884074 z"
           sodipodi:nodetypes="sssss" />
        <path
           id="path35325"
           style="fill:#ffd900;fill-opacity:1;stroke-width:1.34938;stroke-linecap:round;stroke-linejoin:round;stroke-dashoffset:21;paint-order:markers fill stroke"
           d="M -4.991857,3.2577222 C -4.5877502,2.8532817 -3.4551519,4.8807481 -4.1631031,5.0012356 -5.0074573,5.1449373 -6.0700313,5.2472524 -6.4932226,5.242042 -6.5757876,5.241032 -6.5961089,5.1092305 -6.5611236,5.0628325 -6.1357227,4.4986402 -5.0316403,3.2975379 -4.991857,3.2577222 Z"
           sodipodi:nodetypes="sssss" />
        <path
           id="path35327"
           style="fill:#ffd900;fill-opacity:1;stroke-width:1.34938;stroke-linecap:round;stroke-linejoin:round;stroke-dashoffset:21;paint-order:markers fill stroke"
           d="m -9.1214389,3.6556506 c -0.4731049,-0.3210081 -1.2031861,1.8836195 -0.4852132,1.868486 0.8563051,-0.01805 1.9191152,-0.1178817 2.3337365,-0.2027773 0.080894,-0.016557 0.076004,-0.1498259 0.0329,-0.1887967 -0.524133,-0.4738813 -1.8348469,-1.44531 -1.8814233,-1.476912 z"
           sodipodi:nodetypes="sssss" />
      </g>
    </g>
    <path
       id="circle47030"
       style="fill:#eb7420;fill-opacity:1;stroke-width:1.0145;stroke-linecap:round;stroke-linejoin:round;stroke-dashoffset:21;paint-order:stroke markers fill"
       d="m 25.289463,24.088299 c -3.862008,0 -6.992784,-3.130778 -6.992784,-6.992786 0,-0.984467 0.203437,-1.921418 0.570563,-2.771109 0.404918,4.122106 1.327238,8.142855 6.422221,9.763895 z"
       sodipodi:nodetypes="cscc" />
  </g>
  <g
     inkscape:label="Calque 1"
     inkscape:groupmode="layer"
     id="layer1"
     transform="translate(-119.8202,-121.81637)" />
</svg>
